HIERARCHY
ROOT Hips
{
	OFFSET 0.000000 0.000000 0.000000
	CHANNELS 6 Xposition Yposition Zposition Xrotation Yrotation Zrotation
	JOINT LeftUpLeg_virtual
	{
		OFFSET 0.000000 0.000000 0.000000
		CHANNELS 3 Xrotation Yrotation Zrotation
		JOINT LeftUpLeg
		{
			OFFSET 13.026900 -6.336304 -1.092800
			CHANNELS 3 Xrotation Yrotation Zrotation
			JOINT LeftLeg
			{
				OFFSET 0.524474 -46.096886 9.782700
				CHANNELS 3 Xrotation Yrotation Zrotation
				JOINT LeftFoot
				{
					OFFSET -0.524474 -53.427422 -12.948200
					CHANNELS 3 Xrotation Yrotation Zrotation
					JOINT LeftToeBase
					{
						OFFSET 0.192200 -14.009700 16.364100
						CHANNELS 3 Xrotation Yrotation Zrotation
						JOINT LeftToe_End
						{
							OFFSET -1.784700 -0.561700 9.474800
							CHANNELS 3 Xrotation Yrotation Zrotation
							End Site
							{
								OFFSET 0 0 0
							}
						}
					}
				}
			}
		}
	}
	JOINT RightUpLeg_virtual
	{
		OFFSET 0.000000 0.000000 0.000000
		CHANNELS 3 Xrotation Yrotation Zrotation
		JOINT RightUpLeg
		{
			OFFSET -12.883000 -6.336304 -1.092800
			CHANNELS 3 Xrotation Yrotation Zrotation
			JOINT RightLeg
			{
				OFFSET -0.524587 -46.096825 9.782800
				CHANNELS 3 Xrotation Yrotation Zrotation
				JOINT RightFoot
				{
					OFFSET 0.524587 -53.427383 -12.948300
					CHANNELS 3 Xrotation Yrotation Zrotation
					JOINT RightToeBase
					{
						OFFSET -0.192200 -14.009700 16.364100
						CHANNELS 3 Xrotation Yrotation Zrotation
						JOINT RightToe_End
						{
							OFFSET 1.784700 -0.561700 9.474800
							CHANNELS 3 Xrotation Yrotation Zrotation
							End Site
							{
								OFFSET 0 0 0
							}
						}
					}
				}
			}
		}
	}
	JOINT Spine_virtual
	{
		OFFSET 0.000000 0.000000 0.000000
		CHANNELS 3 Xrotation Yrotation Zrotation
		JOINT Spine
		{
			OFFSET 0.072000 7.257294 -0.789700
			CHANNELS 3 Xrotation Yrotation Zrotation
			JOINT Spine1
			{
				OFFSET 0.000000 12.508769 -0.658067
				CHANNELS 3 Xrotation Yrotation Zrotation
				JOINT Spine1_split
				{
					OFFSET 0.000000 12.508769 -0.658067
					CHANNELS 3 Xrotation Yrotation Zrotation
					JOINT Spine2
					{
						OFFSET 0.000000 12.508769 -0.658067
						CHANNELS 3 Xrotation Yrotation Zrotation
						JOINT Neck_virtual
						{
							OFFSET 0.000000 0.000000 0.000000
							CHANNELS 3 Xrotation Yrotation Zrotation
							JOINT Neck
							{
								OFFSET 0.000000 14.033295 7.520400
								CHANNELS 3 Xrotation Yrotation Zrotation
								JOINT Head
								{
									OFFSET 0.000000 8.198502 5.703100
									CHANNELS 3 Xrotation Yrotation Zrotation
									JOINT HeadTop_End
									{
										OFFSET 0.000000 17.760803 13.332701
										CHANNELS 3 Xrotation Yrotation Zrotation
										End Site
										{
											OFFSET 0 0 0
										}
									}
								}
							}
						}
						JOINT LeftShoulder_virtual
						{
							OFFSET 0.000000 0.000000 0.000000
							CHANNELS 3 Xrotation Yrotation Zrotation
							JOINT LeftShoulder
							{
								OFFSET 6.292450 5.785301 -0.669000
								CHANNELS 3 Xrotation Yrotation Zrotation
								JOINT LeftShoulder_split
								{
									OFFSET 6.292450 5.785301 -0.669000
									CHANNELS 3 Xrotation Yrotation Zrotation
									JOINT LeftArm
									{
										OFFSET 13.907140 -6.093903 1.965100
										CHANNELS 3 Xrotation Yrotation Zrotation
										JOINT LeftForeArm
										{
											OFFSET 34.140198 0.000000 0.000000
											CHANNELS 3 Xrotation Yrotation Zrotation
											JOINT LeftHand
											{
												OFFSET 40.960209 0.000000 0.000000
												CHANNELS 3 Xrotation Yrotation Zrotation
												End Site
												{
													OFFSET 0 0 0
												}
											}
										}
									}
								}
							}
						}
						JOINT RightShoulder_virtual
						{
							OFFSET 0.000000 0.000000 0.000000
							CHANNELS 3 Xrotation Yrotation Zrotation
							JOINT RightShoulder
							{
								OFFSET -6.292450 5.785301 -0.669000
								CHANNELS 3 Xrotation Yrotation Zrotation
								JOINT RightShoulder_split
								{
									OFFSET -6.292450 5.785301 -0.669000
									CHANNELS 3 Xrotation Yrotation Zrotation
									JOINT RightArm
									{
										OFFSET -13.907140 -6.093903 1.965100
										CHANNELS 3 Xrotation Yrotation Zrotation
										JOINT RightForeArm
										{
											OFFSET -34.140198 0.000000 0.000000
											CHANNELS 3 Xrotation Yrotation Zrotation
											JOINT RightHand
											{
												OFFSET -40.960209 0.000000 0.000000
												CHANNELS 3 Xrotation Yrotation Zrotation
												End Site
												{
													OFFSET 0 0 0
												}
											}
										}
									}
								}
							}
						}
					}
				}
			}
		}
	}
}
MOTION
Frames: 4
Frame Time: 0.03333333
21.692169 106.797119 -28.270870 0.000000 0.000000 0.000000 155.047412 -33.100668 160.886745 -25.074579 33.121182 27.711589 28.013717 21.636441 -1.062926 -9.987887 12.721378 -29.145206 -0.292635 -0.116898 -0.578223 0.000000 0.000000 0.000000 155.047412 -33.100668 160.886745 -58.999133 19.051865 12.082013 33.523050 -0.702104 2.557839 -0.629270 -6.203090 4.947480 -0.000190 0.062152 0.008307 0.000000 0.000000 0.000000 155.047412 -33.100668 160.886745 36.553762 2.518862 8.639407 -9.492935 -3.544204 1.029319 0.000000 0.000000 0.000000 0.000000 0.000000 0.000000 -9.577649 -2.347689 1.862309 -11.165854 -2.963995 -6.604946 -22.263598 -8.924970 8.896446 0.000000 0.000000 0.000000 -9.577649 -2.347689 1.862309 5.989672 -11.042411 24.883370 0.000000 0.000000 0.000000 -67.569149 -3.871118 -45.262284 1.027809 -68.873920 3.943983 0.000000 0.000000 0.000000 -9.577649 -2.347689 1.862309 8.509939 9.073899 -5.156075 0.000000 0.000000 0.000000 -1.011973 0.755831 67.986200 14.251261 26.152552 -5.099706 0.000000 0.000000 0.000000 
21.537079 107.178215 -28.506565 0.000000 0.000000 0.000000 155.353882 -33.514225 161.251805 -23.634896 33.154814 26.793321 26.717612 21.809156 -0.961849 -9.510839 12.685809 -29.030363 -0.292622 -0.111927 -0.580092 0.000000 0.000000 0.000000 155.353882 -33.514225 161.251805 -57.909465 18.854358 11.533196 33.080467 -0.654040 2.539248 -0.701894 -6.000241 4.772930 -0.000200 0.062405 0.008410 0.000000 0.000000 0.000000 155.353882 -33.514225 161.251805 36.408890 2.521282 8.645315 -9.351836 -3.570434 1.181059 0.000000 0.000000 0.000000 0.000000 0.000000 0.000000 -9.435598 -2.352111 2.017857 -12.226139 -7.455024 -5.693957 -19.356838 -12.917811 9.381452 0.000000 0.000000 0.000000 -9.435598 -2.352111 2.017857 5.744846 -10.522763 24.025846 0.000000 0.000000 0.000000 -67.510601 -3.722620 -45.267991 1.348481 -68.597639 4.202997 0.000000 0.000000 0.000000 -9.435598 -2.352111 2.017857 8.424594 8.375890 -5.507277 0.000000 0.000000 0.000000 -1.238762 1.267724 68.329165 13.833044 26.209123 -4.662799 0.000000 0.000000 0.000000 
21.398451 107.534256 -28.689930 0.000000 0.000000 0.000000 155.636584 -33.897969 161.682066 -22.211814 33.181264 25.789531 25.469046 21.990486 -0.862553 -9.057643 12.669187 -28.892919 -0.292636 -0.107051 -0.581959 0.000000 0.000000 0.000000 155.636584 -33.897969 161.682066 -56.893188 18.680520 10.817494 32.729290 -1.644227 2.444103 -0.742780 -4.649411 4.810847 -0.000190 0.062685 0.008504 0.000000 0.000000 0.000000 155.636584 -33.897969 161.682066 36.298388 2.537735 8.680330 -9.262707 -3.564026 1.268315 0.000000 0.000000 0.000000 0.000000 0.000000 0.000000 -9.346577 -2.337917 2.102956 -12.950596 -10.349950 -5.301793 -17.398334 -15.412054 9.443615 0.000000 0.000000 0.000000 -9.346577 -2.337917 2.102956 5.455872 -10.276587 23.062291 0.000000 0.000000 0.000000 -67.354524 -3.637387 -45.228078 1.900015 -68.291701 4.723975 0.000000 0.000000 0.000000 -9.346577 -2.337917 2.102956 8.353435 7.968174 -5.710314 0.000000 0.000000 0.000000 -1.302526 1.649692 68.639255 13.413280 26.330434 -4.243871 0.000000 0.000000 0.000000 
21.286739 107.846802 -28.821613 0.000000 0.000000 0.000000 155.866734 -34.266171 162.136615 -20.887948 33.166839 24.759086 24.333305 22.157426 -0.771765 -8.646245 12.673809 -28.739831 -0.292633 -0.102108 -0.583802 0.000000 0.000000 0.000000 155.866734 -34.266171 162.136615 -55.999563 18.439163 10.180890 32.388245 -1.247491 2.457905 -0.784851 -4.659600 4.607550 -0.000176 0.062882 0.008597 0.000000 0.000000 0.000000 155.866734 -34.266171 162.136615 36.120643 2.537443 8.713719 -9.194323 -3.531464 1.288041 0.000000 0.000000 0.000000 0.000000 0.000000 0.000000 -9.278985 -2.316858 2.114174 -13.362132 -11.789486 -5.218623 -16.449291 -16.600131 9.207542 0.000000 0.000000 0.000000 -9.278985 -2.316858 2.114174 5.194785 -10.040151 22.169460 0.000000 0.000000 0.000000 -67.199130 -3.604871 -45.225070 1.684062 -68.010051 4.498505 0.000000 0.000000 0.000000 -9.278985 -2.316858 2.114174 8.288733 7.822016 -5.816739 0.000000 0.000000 0.000000 -1.139756 2.025626 69.014212 13.262177 26.443699 -4.130518 0.000000 0.000000 0.000000 
